<svg xmlns="http://www.w3.org/2000/svg" xmlns:xlink="http://www.w3.org/1999/xlink" viewBox="0 0 1920 3000"><defs><style>.cls-1{isolation:isolate;}.cls-2{fill:#0a0a0a;}.cls-3,.cls-4,.cls-5,.cls-6,.cls-7,.cls-8{opacity:0.5;mix-blend-mode:multiply;}.cls-3{fill:url(#Degradado_sin_nombre_18);}.cls-4{fill:url(#Degradado_sin_nombre_17);}.cls-5{fill:url(#Degradado_sin_nombre_18-2);}.cls-6{fill:url(#Degradado_sin_nombre_17-2);}.cls-7{fill:url(#Degradado_sin_nombre_18-3);}.cls-8{fill:url(#Degradado_sin_nombre_17-3);}</style><linearGradient id="Degradado_sin_nombre_18" x1="16.66" y1="1117.71" x2="247.3" y2="1223.63" gradientTransform="matrix(1.06, -0.14, -0.14, 1.32, 313.39, -710.82)" gradientUnits="userSpaceOnUse"><stop offset="0" stop-color="#fff" stop-opacity="0"/><stop offset="0.9" stop-color="#141413"/></linearGradient><linearGradient id="Degradado_sin_nombre_17" x1="508.19" y1="1636.59" x2="277.55" y2="1530.67" xlink:href="#Degradado_sin_nombre_18"/><linearGradient id="Degradado_sin_nombre_18-2" x1="556.85" y1="1691.9" x2="803.46" y2="1806.9" xlink:href="#Degradado_sin_nombre_18"/><linearGradient id="Degradado_sin_nombre_17-2" x1="1218.62" y1="1860.37" x2="987.98" y2="1754.45" xlink:href="#Degradado_sin_nombre_18"/><linearGradient id="Degradado_sin_nombre_18-3" x1="1241.07" y1="1993.01" x2="1471.71" y2="2098.93" xlink:href="#Degradado_sin_nombre_18"/><linearGradient id="Degradado_sin_nombre_17-3" x1="1732.6" y1="2511.89" x2="1501.96" y2="2405.97" xlink:href="#Degradado_sin_nombre_18"/></defs><title>fondo</title><g class="cls-1"><g id="Capa_1" data-name="Capa 1"><rect class="cls-2" width="1920" height="3000"/><polygon class="cls-2" points="1786.37 0 463.72 3000 464.17 3000 1786.82 0 1786.37 0"/><polygon class="cls-2" points="1561.1 0 238.44 3000 238.9 3000 1561.55 0 1561.1 0"/><polygon class="cls-2" points="980.17 0 0 2223.18 0 2224.21 980.62 0 980.17 0"/><polygon class="cls-2" points="754.89 0 0 1712.23 0 1713.25 755.35 0 754.89 0"/><polygon class="cls-2" points="1920 1014.55 1044.65 3000 1045.1 3000 1920 1015.58 1920 1014.55"/><polygon class="cls-2" points="1920 1525.51 1269.92 3000 1270.37 3000 1920 1526.54 1920 1525.51"/><polygon class="cls-2" points="530.08 0 0 1202.3 0 1712.23 754.89 0 530.08 0"/><polygon class="cls-3" points="530.08 0 0 1202.3 0 1712.23 754.89 0 530.08 0"/><polygon class="cls-2" points="980.62 0 0 2224.21 0 2734.14 1205.44 0 980.62 0"/><polygon class="cls-4" points="980.62 0 0 2224.21 0 2734.14 1205.44 0 980.62 0"/><polygon class="cls-2" points="755.35 0 0 1713.25 0 2223.18 980.17 0 755.35 0"/><polygon class="cls-2" points="1336.28 0 13.62 3000 238.44 3000 1561.1 0 1336.28 0"/><polygon class="cls-5" points="1336.28 0 13.62 3000 238.44 3000 1561.1 0 1336.28 0"/><polygon class="cls-2" points="1920 0 1786.82 0 464.17 3000 688.99 3000 1920 207.86 1920 0"/><polygon class="cls-6" points="1920 0 1786.82 0 464.17 3000 688.99 3000 1920 207.86 1920 0"/><polygon class="cls-2" points="1561.55 0 238.9 3000 463.72 3000 1786.37 0 1561.55 0"/><polygon class="cls-2" points="1920 504.63 819.83 3000 1044.65 3000 1920 1014.55 1920 504.63"/><polygon class="cls-7" points="1920 504.63 819.83 3000 1044.65 3000 1920 1014.55 1920 504.63"/><polygon class="cls-2" points="1920 1526.54 1270.37 3000 1495.19 3000 1920 2036.46 1920 1526.54"/><polygon class="cls-8" points="1920 1526.54 1270.37 3000 1495.19 3000 1920 2036.46 1920 1526.54"/><polygon class="cls-2" points="1920 1015.58 1045.1 3000 1269.92 3000 1920 1525.51 1920 1015.58"/></g></g></svg>