<?xml version="1.0" encoding="iso-8859-1"?>
<!-- Generator: Adobe Illustrator 19.0.0, SVG Export Plug-In . SVG Version: 6.00 Build 0)  -->
<svg version="1.1" id="Capa_1" xmlns="http://www.w3.org/2000/svg" xmlns:xlink="http://www.w3.org/1999/xlink" x="0px" y="0px"
	 viewBox="0 0 512 512" style="enable-background:new 0 0 512 512;" xml:space="preserve">
<g>
	<g>
		<path d="M231.36,258.944c-4.231-4.001-10.851-4.001-15.083,0L109.867,365.376l15.083,15.083l98.869-98.891l88.64,88.64
			l15.083-15.083L231.36,258.944z"/>
	</g>
</g>
<g>
	<g>
		<path d="M337.941,248.789c-2-2.001-4.713-3.125-7.541-3.125c-2.829,0.001-5.541,1.125-7.541,3.125l-31.712,31.712l15.083,15.083
			l24.171-24.171l77.867,77.867l15.104-15.04L337.941,248.789z"/>
	</g>
</g>
<g>
	<g>
		<path d="M64,0H21.333C9.551,0,0,9.551,0,21.333V64c0,11.782,9.551,21.333,21.333,21.333H64c11.782,0,21.333-9.551,21.333-21.333
			V21.333C85.333,9.551,75.782,0,64,0z M64,64H21.333V21.333H64V64z"/>
	</g>
</g>
<g>
	<g>
		<path d="M64,213.333H21.333C9.551,213.333,0,222.885,0,234.667v42.667c0,11.782,9.551,21.333,21.333,21.333H64
			c11.782,0,21.333-9.551,21.333-21.333v-42.667C85.333,222.885,75.782,213.333,64,213.333z M64,277.333H21.333v-42.667H64V277.333z
			"/>
	</g>
</g>
<g>
	<g>
		<path d="M490.667,213.333H448c-11.782,0-21.333,9.551-21.333,21.333v42.667c0,11.782,9.551,21.333,21.333,21.333h42.667
			c11.782,0,21.333-9.551,21.333-21.333v-42.667C512,222.885,502.449,213.333,490.667,213.333z M490.667,277.333H448v-42.667h42.667
			V277.333z"/>
	</g>
</g>
<g>
	<g>
		<path d="M490.667,0H448c-11.782,0-21.333,9.551-21.333,21.333V64c0,11.782,9.551,21.333,21.333,21.333h42.667
			C502.449,85.333,512,75.782,512,64V21.333C512,9.551,502.449,0,490.667,0z M490.667,64H448V21.333h42.667V64z"/>
	</g>
</g>
<g>
	<g>
		<path d="M277.333,0h-42.667c-11.782,0-21.333,9.551-21.333,21.333V64c0,11.782,9.551,21.333,21.333,21.333h42.667
			c11.782,0,21.333-9.551,21.333-21.333V21.333C298.667,9.551,289.115,0,277.333,0z M277.333,64h-42.667V21.333h42.667V64z"/>
	</g>
</g>
<g>
	<g>
		<path d="M64,426.667H21.333C9.551,426.667,0,436.218,0,448v42.667C0,502.449,9.551,512,21.333,512H64
			c11.782,0,21.333-9.551,21.333-21.333V448C85.333,436.218,75.782,426.667,64,426.667z M64,490.667H21.333V448H64V490.667z"/>
	</g>
</g>
<g>
	<g>
		<path d="M490.667,426.667H448c-11.782,0-21.333,9.551-21.333,21.333v42.667c0,11.782,9.551,21.333,21.333,21.333h42.667
			c11.782,0,21.333-9.551,21.333-21.333V448C512,436.218,502.449,426.667,490.667,426.667z M490.667,490.667H448V448h42.667V490.667
			z"/>
	</g>
</g>
<g>
	<g>
		<path d="M277.333,426.667h-42.667c-11.782,0-21.333,9.551-21.333,21.333v42.667c0,11.782,9.551,21.333,21.333,21.333h42.667
			c11.782,0,21.333-9.551,21.333-21.333V448C298.667,436.218,289.115,426.667,277.333,426.667z M277.333,490.667h-42.667V448h42.667
			V490.667z"/>
	</g>
</g>
<g>
	<g>
		<rect x="74.667" y="32" width="117.333" height="21.333"/>
	</g>
</g>
<g>
	<g>
		<rect x="288" y="32" width="117.333" height="21.333"/>
	</g>
</g>
<g>
	<g>
		<rect x="458.667" y="106.667" width="21.333" height="117.333"/>
	</g>
</g>
<g>
	<g>
		<rect x="458.667" y="288" width="21.333" height="117.333"/>
	</g>
</g>
<g>
	<g>
		<rect x="32" y="74.667" width="21.333" height="117.333"/>
	</g>
</g>
<g>
	<g>
		<rect x="32" y="320" width="21.333" height="117.333"/>
	</g>
</g>
<g>
	<g>
		<rect x="320" y="458.667" width="117.333" height="21.333"/>
	</g>
</g>
<g>
	<g>
		<rect x="106.667" y="458.667" width="117.333" height="21.333"/>
	</g>
</g>
<g>
	<g>
		<path d="M256,64C149.961,64,64,149.961,64,256s85.961,192,192,192c105.988-0.123,191.877-86.012,192-192
			C448,149.961,362.039,64,256,64z M256,426.667c-94.257,0-170.667-76.41-170.667-170.667S161.743,85.333,256,85.333
			C350.21,85.445,426.555,161.79,426.667,256C426.667,350.257,350.257,426.667,256,426.667z"/>
	</g>
</g>
<g>
	<g>
		<path d="M256,128c-29.455,0-53.333,23.878-53.333,53.333c0,29.455,23.878,53.333,53.333,53.333
			c29.441-0.035,53.298-23.893,53.333-53.333C309.333,151.878,285.455,128,256,128z M256,213.333c-17.673,0-32-14.327-32-32
			c0-17.673,14.327-32,32-32s32,14.327,32,32C288,199.006,273.673,213.333,256,213.333z"/>
	</g>
</g>
<g>
</g>
<g>
</g>
<g>
</g>
<g>
</g>
<g>
</g>
<g>
</g>
<g>
</g>
<g>
</g>
<g>
</g>
<g>
</g>
<g>
</g>
<g>
</g>
<g>
</g>
<g>
</g>
<g>
</g>
</svg>
