<svg id="Capa_1" data-name="Capa 1" xmlns="http://www.w3.org/2000/svg" viewBox="0 0 100 100"><defs><style>.cls-1{fill:#924dff;}</style></defs><title>Icono</title><path class="cls-1" d="M66.42,50.24a2.5,2.5,0,1,0-1.94,4.61,21.81,21.81,0,0,1,7.22,4.72,8.54,8.54,0,0,1,2.31,6v4.23a1.85,1.85,0,0,1-1.85,1.85H27.84A1.84,1.84,0,0,1,26,69.77V65.54a8.53,8.53,0,0,1,2.3-6c7.23-7.39,20.36-7.46,20.68-7.46h0l.21,0c.26,0,.52,0,.79,0a17.08,17.08,0,1,0-10.65-3.76c-4.78,1.16-10.4,3.39-14.63,7.71A13.38,13.38,0,0,0,21,65.54v4.23a6.85,6.85,0,0,0,6.84,6.85H72.16A6.86,6.86,0,0,0,79,69.77V65.54a13.39,13.39,0,0,0-3.73-9.46A26.82,26.82,0,0,0,66.42,50.24ZM50,23.06a12,12,0,1,1-12,12A12.05,12.05,0,0,1,50,23.06Z"/><path class="cls-1" d="M50,0a50,50,0,1,0,50,50A50.06,50.06,0,0,0,50,0Zm0,95A45,45,0,1,1,95,50,45.05,45.05,0,0,1,50,95Z"/></svg>