<svg id="Capa_1" data-name="Capa 1" xmlns="http://www.w3.org/2000/svg" viewBox="0 0 723.54 1000"><defs><style>.cls-1{fill:#5700e0;}.cls-2{fill:none;}</style></defs><title>Logo - Vision EA</title><path d="M13.34,730.09l72.71-23.45,4.84,15L58.25,739.53,93,728.31l4.54,14.05L24.86,765.82,20.28,751.6l34.05-19-36.4,11.75Z"/><path d="M30.74,779.86l68.92-33,13.21,27.59-13.32,6.38L93.06,767.3l-13.4,6.41,6.22,13-13,6.22-6.22-13-15.8,7.56,6.91,14.45-13.4,6.41Z"/><path d="M56.26,820.14q1.82-6.69,11.45-12.93L74,803.15l8.17,12.62-8,5.17q-4.78,3.1-2.8,6.16a3.22,3.22,0,0,0,2.56,1.74,7.65,7.65,0,0,0,3.83-1.53,18.61,18.61,0,0,0,4.71-4.11,13.75,13.75,0,0,0,2.2-4.13c.42-1.37,1-3.67,1.61-6.92l1.94-9.1q2.12-10.49,9.73-15.42,8.2-5.31,15-4.32t11.42,8.23q5.61,8.65,3.48,15.44t-11.9,13.11L107.43,807l4.35-2.93a3.34,3.34,0,0,0,1.56-2,3.15,3.15,0,0,0-.53-2.47,3.45,3.45,0,0,0-2.28-1.7,3.79,3.79,0,0,0-2.72.7q-3.14,2-4.17,7.79l-2.34,12.11a49.84,49.84,0,0,1-2,7.45,22.42,22.42,0,0,1-3.58,6.24A27.73,27.73,0,0,1,89,838q-9.48,6.13-16.62,5.83T60.1,835.56Q54.44,826.83,56.26,820.14Z"/><path d="M82.64,865.5l47.21-39.77L124,818.79l11.22-9.45,21.55,25.57-11.22,9.46-5.85-6.94L92.5,877.2Z"/><path d="M126.1,911.09l48-59.45,23.81,19.22-9.28,11.49-11.69-9.44-9.33,11.55,11.21,9-9.05,11.21-11.21-9.05-11,13.64L160,919.36l-9.33,11.56Z"/><path d="M166.48,936.45q-1.24-6.81,4.75-16.6l3.91-6.37L188,921.34l-5,8.11q-3,4.86.13,6.76a3.15,3.15,0,0,0,3,.47,7.65,7.65,0,0,0,2.8-3,18.31,18.31,0,0,0,2.48-5.74,13.63,13.63,0,0,0,.2-4.67q-.31-2.13-1.53-6.94l-2.17-9q-2.62-10.38,2.13-18.11,5.12-8.32,11.61-10.35t13.86,2.5q8.79,5.4,9.8,12.43t-5.08,17L207,902.55l2.67-4.52a3.37,3.37,0,0,0,.53-2.49,3.09,3.09,0,0,0-1.54-2,3.42,3.42,0,0,0-2.79-.56,3.85,3.85,0,0,0-2.15,1.81q-2,3.18-.41,8.83l3.12,11.93a50.43,50.43,0,0,1,1.4,7.58,22.35,22.35,0,0,1-.54,7.18,27.46,27.46,0,0,1-3.52,8.12q-5.91,9.63-12.48,12.44T176.6,948.7Q167.72,943.27,166.48,936.45Z"/><path d="M234.88,893.65l18.51,8.06q8.4,3.67,9.62,10.65t-3.32,17.42q-4.56,10.44-10,14.35t-13.73.33l-5.7-2.49-12.09,27.72-13.78-6Zm1.66,36a6.54,6.54,0,0,0,4.12.68,4.91,4.91,0,0,0,2.72-2,28.9,28.9,0,0,0,2.55-4.85q1.92-4.41,1.8-6.79t-3.06-3.66l-1.55-.68-7.4,17Z"/><path d="M256.72,979.35q-3.14-6.71-.44-16.58l9.59-35.09q2.61-9.52,8.56-13.1t14.88-1.15q8.93,2.45,12.23,8.56t.71,15.64l-9.6,35.08q-2.72,10-8.83,14.1t-15,1.69Q259.86,986.07,256.72,979.35Zm18.9-5.39a13.83,13.83,0,0,0,2-4.62l9.85-36a10.46,10.46,0,0,0,.43-4.08,2.65,2.65,0,0,0-2.21-2.22c-2.46-.67-4.2.86-5.21,4.57l-9.83,35.95a12,12,0,0,0-.54,5,3,3,0,0,0,2.39,2.4A2.69,2.69,0,0,0,275.62,974Z"/><path d="M311.28,919.39l23.31,2.83q5.57.67,8.31,3.56a12.62,12.62,0,0,1,3.24,7.57,52.34,52.34,0,0,1-.35,11.74q-.78,6.43-2.9,9.86a9.46,9.46,0,0,1-6.44,4.32,7.07,7.07,0,0,1,4.57,4.05,15.18,15.18,0,0,1,.65,7.6L338,999.6l-14.83-1.8,3.61-29.67c.25-2.12,0-3.52-.75-4.21s-2.22-1.17-4.39-1.43l-4.21,34.61-15.36-1.87Zm15.66,30.39c2.12.26,3.46-1.9,4-6.5a28,28,0,0,0,.28-4.53,3.31,3.31,0,0,0-.72-2.19,3.16,3.16,0,0,0-2-.83l-3.53-.42-1.71,14Z"/><path d="M359.34,1000l-.92-61.72-9.08.14-.21-14.68,33.43-.5.22,14.68-9.07.13.93,61.72Z"/><path d="M398.72,993.78q-5.34-4.42-7-15.77l-1.11-7.39,14.87-2.22,1.41,9.41q.84,5.63,4.45,5.09a3.14,3.14,0,0,0,2.63-1.61,7.59,7.59,0,0,0,.2-4.12,18.25,18.25,0,0,0-1.8-6,13.49,13.49,0,0,0-2.85-3.71q-1.61-1.43-5.64-4.33l-7.48-5.53q-8.67-6.25-10-15.23-1.46-9.67,2.23-15.4t12.22-7q10.2-1.53,15.5,3.21t7,16.26l-15.39,2.31-.87-5.18a3.35,3.35,0,0,0-1.19-2.25,3.11,3.11,0,0,0-2.46-.53,3.42,3.42,0,0,0-2.5,1.36,3.8,3.8,0,0,0-.48,2.77q.56,3.69,5.37,7l10.06,7.13a50.08,50.08,0,0,1,5.95,4.91,22.77,22.77,0,0,1,4.2,5.84,27.46,27.46,0,0,1,2.53,8.48q1.68,11.17-1.55,17.55t-12.64,7.78Q404,998.2,398.72,993.78Z"/><path d="M469.26,984.06l-20.46-74L473,900.81l34.16,68.73-13.54,5.19-5.42-11.16-8.64,3.31,3.6,11.86Zm7-29,6.48-2.48-17.07-35.09-.67.26Z"/><path d="M520.9,957.53q-6.95-2.13-11.41-10.12l-17.17-30.75q-5.55-9.95-4.41-17.2t9.6-12q7.38-4.12,14.14-2.6t11,9.13l6.42,11.5-13.27,7.41-5.51-9.86a9.14,9.14,0,0,0-2.91-3.57,3,3,0,0,0-3,.26,2.88,2.88,0,0,0-1.75,2.61,9,9,0,0,0,1.38,4l18.69,33.47a8.37,8.37,0,0,0,2.93,3.41,3,3,0,0,0,3-.09q3.1-1.74.29-6.79l-6.73-12,13.44-7.51,7,12.58q9.38,16.77-7.48,26.19Q527.85,959.67,520.9,957.53Z"/><path d="M561.53,939.14l-40.41-65.26,20.59-15.68,52.09,56.37-11.54,8.79-8.33-9.19-7.37,5.6,6.79,10.38Zm-1.43-29.77,5.52-4.2-26.23-28.88-.57.44Z"/><path d="M549.38,852l14.78-15q5.75-5.84,11.85-5.57t12.5,6.44l25.61,24.95q8.11,7.88,9.36,14.71t-5.24,13.44l-14.41,14.64Zm57.48,31.24c2-2,2-3.94,0-5.85L578.8,849.72a14.51,14.51,0,0,0-3-2.43,2.59,2.59,0,0,0-2.27-.17,9.1,9.1,0,0,0-2.63,2l-1.18,1.2L605,885.11Z"/><path d="M639.53,867.53l-61-45.95,18.41-24.45L608.69,806l-9,12L611.52,827l8.66-11.51,11.51,8.66L623,835.62l14,10.54,9.63-12.78,11.87,8.93Z"/><path d="M667.42,830.24l-67.83-35.16,10.73-20.69,44.32,15.77L616.22,763,627,742.18l67.83,35.16-6.43,12.4L639.55,764.4l44.82,33.15-6.3,12.16-53.18-17.05L673.77,818Z"/><path d="M703.05,752.37l-24-7.56-52.52-3.75,4.54-14.43,26,3.7-23.41-11.84,4.54-14.43,45.21,27,24,7.56Z"/><path d="M702.13,1a21.42,21.42,0,0,1,21.41,21.41V635.79a365.28,365.28,0,0,1-4.49,57.05,2.74,2.74,0,0,1-2.71,2.31H709a2.71,2.71,0,0,1-2.67-3.15,356.49,356.49,0,0,0,4.46-56.21V23.45a9.7,9.7,0,0,0-9.7-9.7H22.41a9.7,9.7,0,0,0-9.7,9.7V635.79A356.49,356.49,0,0,0,17.17,692a2.72,2.72,0,0,1-2.68,3.15H7.19a2.75,2.75,0,0,1-2.71-2.31A366.49,366.49,0,0,1,0,635.79V22.45A21.41,21.41,0,0,1,21.41,1Z"/><path d="M135.83,54.55V32.72h8.74V37h-4.34v3.48h4.11v4.19h-4.11v9.91Z"/><path d="M147.93,53.14a6.76,6.76,0,0,1-1.38-4.53V38.21A5.89,5.89,0,0,1,147.93,34a6.32,6.32,0,0,1,8,0,5.93,5.93,0,0,1,1.37,4.25v10.4A6.83,6.83,0,0,1,156,53.16a5,5,0,0,1-4,1.6A5,5,0,0,1,147.93,53.14Zm4.8-2.91a3.86,3.86,0,0,0,.2-1.42V38.14a2.93,2.93,0,0,0-.19-1.16.74.74,0,0,0-.77-.44c-.73,0-1.1.55-1.1,1.65V48.84a3.49,3.49,0,0,0,.23,1.42.86.86,0,0,0,.84.48A.78.78,0,0,0,152.73,50.23Z"/><path d="M160.9,53.23a6.77,6.77,0,0,1-1.31-4.52v-16h4.25V48.53a5.07,5.07,0,0,0,.2,1.63.81.81,0,0,0,.86.58.84.84,0,0,0,.87-.57,5.31,5.31,0,0,0,.2-1.64V32.72h4.24v16a6.72,6.72,0,0,1-1.31,4.52,6,6,0,0,1-8,0Z"/><path d="M172.65,54.55V32.72h4.5l2,10.45V32.72h4.22V54.55h-4.27l-2.19-10.92V54.55Z"/><path d="M186.07,32.72h6A4.51,4.51,0,0,1,195.6,34a5.65,5.65,0,0,1,1.2,3.84l0,10.21a8.44,8.44,0,0,1-1.12,4.86,4.32,4.32,0,0,1-3.79,1.62h-5.87Zm5.16,18a1,1,0,0,0,1.19-1.17V38.26a3.82,3.82,0,0,0-.11-1.1.76.76,0,0,0-.42-.5,2.74,2.74,0,0,0-.94-.12h-.48V50.69Z"/><path d="M199.36,54.55V32.72h8.74v4.22h-4.29v4.25h4.12V45.3h-4.12v5h4.57v4.24Z"/><path d="M210.59,32.72h6a4.48,4.48,0,0,1,3.5,1.3,5.65,5.65,0,0,1,1.2,3.84l.05,10.21a8.36,8.36,0,0,1-1.12,4.86,4.3,4.3,0,0,1-3.79,1.62h-5.87Zm5.16,18a1,1,0,0,0,1.2-1.17V38.26a3.75,3.75,0,0,0-.12-1.1.72.72,0,0,0-.42-.5,2.7,2.7,0,0,0-.94-.12H215V50.69Z"/><path d="M237.1,54.55V32.72h4.22V54.55Z"/><path d="M243.83,54.55V32.72h4.5l2,10.45V32.72h4.22V54.55h-4.27L248.1,43.63V54.55Z"/><path d="M270.46,53.51a8,8,0,0,1,.47-2.77,10.92,10.92,0,0,1,1.16-2.29c.46-.67,1.06-1.47,1.8-2.38s1.37-1.76,1.82-2.42a10.72,10.72,0,0,0,1.15-2.27,8.17,8.17,0,0,0,.47-2.79,3.05,3.05,0,0,0-.26-1.38.93.93,0,0,0-.91-.5c-.73,0-1.1.66-1.1,2v2.67h-4.6l0-1.35a13.74,13.74,0,0,1,.51-4.09,4.4,4.4,0,0,1,1.78-2.44,6.33,6.33,0,0,1,3.51-.84,5.63,5.63,0,0,1,4.24,1.54,6,6,0,0,1,1.5,4.36,10.1,10.1,0,0,1-.49,3.26,11.06,11.06,0,0,1-1.22,2.56c-.49.73-1.13,1.58-1.92,2.56q-.87,1.05-1.44,1.86a16.08,16.08,0,0,0-1,1.68h5.95v4.11H270.46Z"/><path d="M285,53.19a6.17,6.17,0,0,1-1.5-4.46V38.87A6.86,6.86,0,0,1,285,34.15a6.57,6.57,0,0,1,8.66,0,6.86,6.86,0,0,1,1.45,4.72v9.86a6.2,6.2,0,0,1-1.5,4.48,5.71,5.71,0,0,1-4.29,1.55A5.61,5.61,0,0,1,285,53.19Zm5.05-2.89a1.79,1.79,0,0,0,.31-1.06V38.47a3.62,3.62,0,0,0-.22-1.44,1,1,0,0,0-1.74,0,4.09,4.09,0,0,0-.2,1.44V49.24a1.93,1.93,0,0,0,.29,1.06.9.9,0,0,0,.78.44A.92.92,0,0,0,290.08,50.3Z"/><path d="M299.33,37.73a3,3,0,0,1-1.2.86,3.84,3.84,0,0,1-1.49.33V35.44a5.55,5.55,0,0,0,2.22-.89,4,4,0,0,0,1.59-1.85H304V54.55h-4.63Z"/><path d="M307.62,53.58a4.65,4.65,0,0,1-1.55-3.8V46.55h4.54V48.4a5.47,5.47,0,0,0,.23,1.76.92.92,0,0,0,.94.63,1,1,0,0,0,.91-.43,2.68,2.68,0,0,0,.24-1.27V44.8a5.07,5.07,0,0,0-.22-1.67.86.86,0,0,0-.9-.62c-.83,0-1.24.6-1.24,1.8h-4V32.7H317v4.09h-6.25v3.08a2.48,2.48,0,0,1,.89-.72,2.86,2.86,0,0,1,1.27-.28,3.85,3.85,0,0,1,3.75,1.93,12.21,12.21,0,0,1,1,5.47,21.72,21.72,0,0,1-.42,4.74,4.89,4.89,0,0,1-1.69,2.83,5.87,5.87,0,0,1-3.74,1A6.34,6.34,0,0,1,307.62,53.58Z"/><path d="M333,54.55V32.72h4.22V54.55Z"/><path d="M339.74,54.55V32.72h4.49l2,10.45V32.72h4.22V54.55h-4.27L344,43.63V54.55Z"/><path d="M367.55,53.09a8.89,8.89,0,0,1-1.16-5v-9.4a6.79,6.79,0,0,1,1.35-4.58,5.06,5.06,0,0,1,4-1.55,5.7,5.7,0,0,1,3.35.86,4.43,4.43,0,0,1,1.65,2.52,16.07,16.07,0,0,1,.46,4.24H373v-2a2.69,2.69,0,0,0-.22-1.22.78.78,0,0,0-.77-.43c-.83,0-1.25.54-1.25,1.62V48.73a3.45,3.45,0,0,0,.26,1.5.91.91,0,0,0,.89.51.91.91,0,0,0,.89-.51,3.47,3.47,0,0,0,.25-1.5V45.61h-1.17V41.85h5.34v12.7h-1.75l-.74-1.83a3.88,3.88,0,0,1-3.61,2A4,4,0,0,1,367.55,53.09Z"/><path d="M379.66,54.55V32.72h8.74v4.22h-4.29v4.25h4.11V45.3h-4.11v5h4.57v4.24Z"/><path d="M390.89,32.72h6.71a3.76,3.76,0,0,1,2.48.73,3.59,3.59,0,0,1,1.18,2,15.36,15.36,0,0,1,.3,3.34,7.07,7.07,0,0,1-.48,2.9,2.69,2.69,0,0,1-1.67,1.45,2,2,0,0,1,1.43,1,4.3,4.3,0,0,1,.44,2.13l0,8.26H397V46c0-.61-.11-1-.35-1.16a2.36,2.36,0,0,0-1.3-.26v10h-4.42Zm5.49,8.08c.61,0,.92-.66.92-2a8.08,8.08,0,0,0-.08-1.29.94.94,0,0,0-.28-.6.89.89,0,0,0-.58-.17h-1v4Z"/><path d="M403.77,54.55V32.72h6.66L412.26,46l1.83-13.32h6.71V54.55h-4V38.82l-2.52,15.73h-3.91l-2.67-15.73V54.55Z"/><path d="M422.91,54.55,425,32.72h7.39l2.09,21.83h-4.15l-.3-3.53h-2.64l-.26,3.53Zm4.83-7h2l-1-11.11h-.2Z"/><path d="M436.58,54.55V32.72h4.5l2,10.45V32.72h4.21V54.55H443l-2.19-10.92V54.55Z"/><path d="M452.64,54.55V47.36l-3.48-14.64h4.32l1.22,7.4,1.22-7.4h4.32l-3.48,14.64v7.19Z"/><path d="M468.8,32.72h5.92a4.53,4.53,0,0,1,3.47,1.17,5.52,5.52,0,0,1,1.08,3.81v1c0,2.08-.74,3.33-2.24,3.74A2.74,2.74,0,0,1,479,44.06a8.85,8.85,0,0,1,.55,3.43,10.6,10.6,0,0,1-1,5.27,4,4,0,0,1-3.76,1.79H468.8ZM474,40.93a.76.76,0,0,0,.76-.42,2.68,2.68,0,0,0,.21-1.18V37.15c0-.72-.32-1.07-.95-1.07h-.91v4.85Zm1.25,8.16V46.37a3,3,0,0,0-.3-1.5,1.08,1.08,0,0,0-1-.51h-.81v6.33l.43,0C474.64,50.72,475.21,50.17,475.21,49.09Z"/><path d="M484.38,54.55V47.36L480.9,32.72h4.32l1.22,7.4,1.22-7.4H492l-3.49,14.64v7.19Z"/><path d="M501.43,53.28q-1.32-1.47-1.32-4.75V46.4h4.29v2.71c0,1.09.35,1.63,1,1.63a.91.91,0,0,0,.82-.34,2.22,2.22,0,0,0,.23-1.16,5.15,5.15,0,0,0-.26-1.76,3.62,3.62,0,0,0-.64-1.17c-.27-.32-.74-.8-1.42-1.46L502.3,43a6.46,6.46,0,0,1-2.19-4.72A6.3,6.3,0,0,1,501.39,34a4.75,4.75,0,0,1,3.75-1.46,5.25,5.25,0,0,1,4.25,1.56,7.66,7.66,0,0,1,1.29,4.9h-4.45l0-1.5a1,1,0,0,0-.24-.69.91.91,0,0,0-.68-.25,1,1,0,0,0-.76.28,1.07,1.07,0,0,0-.25.76,3.14,3.14,0,0,0,1.22,2.21L508,42.23a14,14,0,0,1,1.47,1.64,6.31,6.31,0,0,1,.94,1.83,7.72,7.72,0,0,1,.36,2.5,8.48,8.48,0,0,1-1.18,4.89,4.46,4.46,0,0,1-3.9,1.67C503.74,54.76,502.31,54.27,501.43,53.28Z"/><path d="M513,54.55V32.72h4.34v7.81h2.06V32.72h4.35V54.55h-4.35V44.64h-2.06v9.91Z"/><path d="M525.88,54.55,528,32.72h7.39l2.09,21.83h-4.15L533,51h-2.64l-.26,3.53Zm4.83-7h2l-1-11.11h-.2Z"/><path d="M539.55,32.72h5.77a4.15,4.15,0,0,1,3.73,1.69,9,9,0,0,1,1.12,5,9.68,9.68,0,0,1-1,4.9,3.81,3.81,0,0,1-3.56,1.65h-1.78v8.64h-4.29ZM544.1,42a1.8,1.8,0,0,0,1.15-.29,1.37,1.37,0,0,0,.49-.84,8.65,8.65,0,0,0,.11-1.56,4.78,4.78,0,0,0-.3-2,1.24,1.24,0,0,0-1.23-.61h-.48V42Z"/><path d="M555,54.55V47.36l-3.48-14.64h4.32l1.22,7.4,1.22-7.4h4.32l-3.48,14.64v7.19Z"/><path d="M564.4,32.72h6.71a3.76,3.76,0,0,1,2.48.73,3.59,3.59,0,0,1,1.18,2,15.29,15.29,0,0,1,.31,3.34,7.05,7.05,0,0,1-.49,2.9,2.69,2.69,0,0,1-1.67,1.45,2,2,0,0,1,1.43,1,4.3,4.3,0,0,1,.44,2.13l0,8.26h-4.27V46c0-.61-.11-1-.35-1.16a2.36,2.36,0,0,0-1.3-.26v10H564.4Zm5.49,8.08c.61,0,.92-.66.92-2a8.08,8.08,0,0,0-.08-1.29.94.94,0,0,0-.28-.6.89.89,0,0,0-.58-.17h-1v4Z"/><path d="M578.48,53.14a6.76,6.76,0,0,1-1.37-4.53V38.21A5.89,5.89,0,0,1,578.48,34a6.32,6.32,0,0,1,8,0,5.93,5.93,0,0,1,1.37,4.25v10.4a6.83,6.83,0,0,1-1.37,4.55,5,5,0,0,1-4,1.6A5,5,0,0,1,578.48,53.14Zm4.8-2.91a3.83,3.83,0,0,0,.21-1.42V38.14a2.91,2.91,0,0,0-.2-1.16.74.74,0,0,0-.77-.44c-.73,0-1.09.55-1.09,1.65V48.84a3.51,3.51,0,0,0,.22,1.42.86.86,0,0,0,.84.48A.77.77,0,0,0,583.28,50.23Z"/><path d="M416.9,536.78a4.08,4.08,0,0,0-3.82,2.78,54.41,54.41,0,0,1-102.62,0,4.1,4.1,0,0,0-3.83-2.78H237a4,4,0,0,0-4,4v78.44a4,4,0,0,0,4,4H486.56a4,4,0,0,0,4-4V536.78H416.9Z"/><path class="cls-1" d="M385.47,521.4a23.71,23.71,0,1,0-23.7,23.71A23.73,23.73,0,0,0,385.47,521.4Z"/><rect x="232.95" y="654.02" width="257.64" height="33.2" rx="4.03"/><path d="M486.56,419.53H237a4,4,0,0,0-4,4V502a4,4,0,0,0,4,4h69.66a4.09,4.09,0,0,0,3.83-2.78,54.41,54.41,0,0,1,102.62,0,4.08,4.08,0,0,0,3.83,2.78h69.65a4,4,0,0,0,4-4V423.56A4,4,0,0,0,486.56,419.53Z"/><path class="cls-1" d="M416.23,795a15.36,15.36,0,0,1-15.38,15.37H322.68a15.38,15.38,0,0,1,0-30.75h78.17A15.39,15.39,0,0,1,416.23,795Z"/><path class="cls-1" d="M305.12,200.07c-.15.25-.3.51-.45.74l-.26.4c-.2.33-.4.64-.63,1a1.3,1.3,0,0,0-.1.15.49.49,0,0,1-.08.1c-.2.31-.41.59-.61.87s-.33.45-.48.66-.21.28-.31.4a3.55,3.55,0,0,1-.23.31c-.12.15-.25.3-.38.48-.4.51-.84,1-1.27,1.5-.2.25-.43.48-.66.74s-.25.28-.38.4-.33.36-.51.54-.58.58-.89.86c-.61.59-1.22,1.15-1.85,1.7a3,3,0,0,1-.26.21l-.94.76c-.3.25-.61.48-.91.71l-1.07.76a5.85,5.85,0,0,1-.89.61,4.58,4.58,0,0,1-.48.33c-.64.39-1.27.79-1.93,1.15-.36.2-.72.38-1.07.56s-1,.51-1.47.73-.89.41-1.33.59-.76.33-1.14.46l-.48.17c-.71.28-1.45.51-2.16.74-.38.1-.74.2-1.1.28-.63.18-1.27.33-1.88.46s-1.11.23-1.7.33l-.53.07c-.69.11-1.4.18-2.09.23-.15,0-.28,0-.4.05s-.41,0-.61,0c-.66,0-1.35.08-2,.08h-.15c-.51,0-1,0-1.5,0l-.3,0-.61,0c-.08,0-.13,0-.21,0-.45,0-.88-.07-1.34-.12l-.31,0a37,37,0,0,1-3.81-.66l-.18,0c-.56-.13-1.12-.28-1.65-.46s-1.09-.33-1.63-.51c-.27-.08-.53-.18-.81-.25l-1.12-.46c-.84-.36-1.7-.66-2.51-1.07-.61-.3-1.22-.66-1.83-1-.31-.15-.61-.33-.92-.48s-.61-.36-.89-.54l-.2-.15L251,214c-.18-.12-.39-.25-.56-.38-.38-.25-.74-.53-1.1-.78-.78-.56-1.55-1.2-2.28-1.81-.46-.38-.89-.71-1.32-1.12l-.26-.23c-.51-.48-1-1-1.52-1.49-.21-.23-.44-.46-.66-.72-.08-.1-.18-.17-.26-.28l-.61-.68c-.35-.43-.71-.84-1.07-1.27s-.68-.84-1-1.3c-.18-.25-.36-.51-.56-.76l-.92-1.35-.83-1.29s0,0,0-.05c-.15-.23-.28-.46-.43-.72-.61-1-1.22-2.13-1.76-3.22a4.34,4.34,0,0,0-.25-.54c-.3-.71-.63-1.39-.94-2.13-.18-.43-.36-.87-.51-1.3s-.23-.66-.35-1c-.33-.89-.64-1.81-.89-2.75-.1-.28-.16-.56-.23-.84a5.25,5.25,0,0,1-.23-.84l-.23-1-.46-2s0-.08,0-.13c0-.22-.08-.45-.1-.68-.08-.43-.18-.89-.23-1.32-.1-.72-.18-1.43-.26-2.14,0-.38-.07-.76-.1-1.14s0-.56,0-.81c-.05-.49-.08-1-.11-1.45s0-.94,0-1.43a2.17,2.17,0,0,1,0-.43c0-.25,0-.48,0-.71,0-.86,0-1.7.1-2.54,0-.33,0-.66.05-1,.08-.84.18-1.65.28-2.44,0-.4.1-.81.18-1.22.13-.86.3-1.72.46-2.59a187.69,187.69,0,0,0,33.92,22,175.63,175.63,0,0,0,18.81,8.08l-.26.15c.51.1,1,.21,1.53.28a156,156,0,0,0,19.16,5.39Z"/><path class="cls-1" d="M492.69,174.63a3.1,3.1,0,0,1,0,.43c0,.49,0,1,0,1.43s-.05,1-.1,1.45a7.59,7.59,0,0,1,0,.81c0,.38-.07.76-.1,1.14,0,.21-.05.41-.07.61s-.08.69-.13,1c-.08.53-.15,1.07-.26,1.6,0,.08,0,.15,0,.23s-.05.3-.08.46,0,.15,0,.22,0,.08,0,.13c-.15.69-.3,1.35-.46,2-.07.33-.15.63-.22,1a.56.56,0,0,0-.06.21,5.19,5.19,0,0,1-.2.73,6.21,6.21,0,0,1-.2.74c-.26.94-.56,1.86-.89,2.75-.13.35-.23.68-.36,1,0,0,0,.05,0,.08-.23.61-.49,1.19-.74,1.8-.18.38-.33.77-.51,1.12a2.62,2.62,0,0,1-.18.43c-.1.18-.17.36-.25.54l-.08.15c-.35.69-.73,1.35-1.11,2-.18.33-.36.71-.56,1s-.28.49-.43.72c0,0,0,0,0,0v0c-.18.28-.36.53-.53.81s-.26.41-.41.61-.43.66-.66,1l-.15.23a9.23,9.23,0,0,0-.56.76c-.05,0-.1.13-.16.18-.27.38-.55.74-.83,1.09a.27.27,0,0,0-.11.1c-.3.39-.63.77-1,1.15,0,0,0,0,0,.05-.2.23-.4.46-.61.68l0,0c-.08.08-.15.18-.23.25-.23.26-.46.49-.66.72-.48.5-1,1-1.5,1.47l0,0a2.73,2.73,0,0,1-.25.23l-.08.08s0,0-.05,0l-.15.15-1,.86a2.38,2.38,0,0,0-.31.26c-.63.53-1.29,1.06-2,1.55l-.1.07c-.69.51-1.4,1-2.14,1.45l-.2.15c-.56.36-1.17.66-1.75,1,0,0,0,0-.05,0a.74.74,0,0,0-.13.08c-.58.3-1.12.63-1.7.91-.82.38-1.68.74-2.52,1.07-.3.13-.58.25-.89.35,0,0-.07,0-.1,0l-.13.06c-.12.05-.28.07-.4.12l-.41.13a.88.88,0,0,1-.15.05l-1.45.46c-.1,0-.23.07-.33.1-.43.13-.89.25-1.35.36-.05,0-.1,0-.12,0h-.06c-.61.13-1.22.2-1.83.31l-.94.17a6.41,6.41,0,0,1-1,.16.12.12,0,0,1-.08,0,.45.45,0,0,0-.18,0h-.17c-.44.05-.87.1-1.3.12-.25,0-.51,0-.79,0h-.23a.77.77,0,0,1-.28,0c-.43,0-.86,0-1.32,0H452c-.69,0-1.37,0-2-.08h0c-.15,0-.28,0-.43,0h-.15l-.18,0a.61.61,0,0,1-.23,0l-.25,0h-.05l-.79-.08c-.33-.05-.66-.07-1-.13l-.54-.07-.15,0c-.46-.07-.89-.18-1.32-.25a1.89,1.89,0,0,0-.23-.05l-.91-.23c-.33-.08-.64-.13-1-.23l-.33-.08c-.25-.07-.51-.15-.76-.2-.71-.23-1.45-.46-2.16-.74-.1,0-.21-.07-.31-.1l-.17-.07c-.39-.13-.77-.31-1.15-.46,0,0-.05,0-.1,0a1.25,1.25,0,0,0-.3-.12c-.28-.16-.56-.28-.84-.41,0,0-.05,0-.08,0-.48-.22-1-.48-1.47-.73s-.72-.36-1.07-.56l-.15-.08c-.59-.35-1.2-.71-1.78-1.07a1.92,1.92,0,0,0-.26-.17.14.14,0,0,0-.1,0,.33.33,0,0,0-.13-.11s-.07-.05-.1-.05a4.21,4.21,0,0,1-.48-.35,1.82,1.82,0,0,1-.3-.21c-.26-.17-.51-.35-.74-.53a3.37,3.37,0,0,1-.38-.28l-.31-.23c-.48-.35-.94-.73-1.4-1.12a.43.43,0,0,1-.1-.07l-.12-.1c-.05,0-.08-.08-.13-.11-.64-.55-1.25-1.11-1.86-1.7l-.89-.86-.5-.54a3.64,3.64,0,0,1-.38-.4c-.08-.08-.16-.18-.23-.26a6.39,6.39,0,0,1-.44-.48l-.5-.61c-.26-.28-.51-.58-.77-.89a4.72,4.72,0,0,0-.38-.48c-.18-.23-.35-.46-.53-.71l-.48-.66c-.21-.28-.39-.56-.61-.87v0a.68.68,0,0,1-.13-.18c-.31-.41-.56-.84-.84-1.27a.44.44,0,0,0-.1-.15c-.15-.23-.31-.49-.46-.74h0a156.47,156.47,0,0,0,19.16-5.39c.51-.07,1-.18,1.52-.28l-.25-.15a175.52,175.52,0,0,0,18.8-8.08,187.39,187.39,0,0,0,33.93-22c.15.87.33,1.73.46,2.59.07.41.12.82.17,1.22s.11.82.16,1.22.07.79.1,1.22a3.8,3.8,0,0,1,.05.46c0,.18,0,.33,0,.51.08.84.11,1.68.11,2.54C492.67,174.15,492.69,174.38,492.69,174.63Z"/><path class="cls-2" d="M509.82,317.12H213.72a19.23,19.23,0,0,0-19.22,19.23V706.46a19.24,19.24,0,0,0,19.22,19.21h296.1A19.23,19.23,0,0,0,529,706.46V336.35A19.23,19.23,0,0,0,509.82,317.12ZM490.58,683.21a4,4,0,0,1-4,4H237a4,4,0,0,1-4-4V658.05a4,4,0,0,1,4-4h249.6a4,4,0,0,1,4,4Zm0-64a4,4,0,0,1-4,4H237a4,4,0,0,1-4-4V540.8a4,4,0,0,1,4-4h69.65a4.09,4.09,0,0,1,3.84,2.77,54.4,54.4,0,0,0,102.61,0,4.11,4.11,0,0,1,3.84-2.77h73.67ZM338.06,521.41a23.71,23.71,0,1,1,23.71,23.71A23.74,23.74,0,0,1,338.06,521.41ZM490.58,502a4,4,0,0,1-4,4H416.91a4.1,4.1,0,0,1-3.84-2.79,54.41,54.41,0,0,0-102.61,0,4.08,4.08,0,0,1-3.84,2.79H237a4,4,0,0,1-4-4V423.54a4,4,0,0,1,4-4h249.6a4,4,0,0,1,4,4Zm0-117.25a4,4,0,0,1-2.34,3.66,4.08,4.08,0,0,1-1.67.38H237a4.07,4.07,0,0,1-2.21-.66,4.4,4.4,0,0,1-.41-.31,3.49,3.49,0,0,1-.63-.71,4.13,4.13,0,0,1-.49-.86q-.07-.23-.15-.48a4.25,4.25,0,0,1-.13-1V359.61a4,4,0,0,1,4-4h249.6a4,4,0,0,1,2.36.78,4.64,4.64,0,0,1,.69.64,3.48,3.48,0,0,1,.35.48s0,0,0,.08a4,4,0,0,1,.49,1.32,3.51,3.51,0,0,1,.07.74Z"/><path d="M490.58,384.74V359.61a4,4,0,0,0-1.65-3.25,4,4,0,0,0-2.37-.79H237a4,4,0,0,0-4,4v25.13a4,4,0,0,0,1.81,3.37,4,4,0,0,0,2.21.67H486.56a3.94,3.94,0,0,0,1.68-.38A4,4,0,0,0,490.58,384.74Z"/><path d="M572.89,186.17h-32.5A130,130,0,0,0,516.17,141c-.46.53-.94,1-1.42,1.55-.66.74-1.35,1.42-2,2.14-.38.4-.76.81-1.14,1.19a76.57,76.57,0,0,1,3.68,12.45,79.65,79.65,0,0,1,1.65,16.34,82.51,82.51,0,0,1-.81,11.54,75.53,75.53,0,0,1-20.61,42.51c-11.48,11.64-26.68,18.73-43.4,18.73s-32.12-7.29-43.69-19.16a72.78,72.78,0,0,1-16-25.41h0v-.05l-.38-2.67-.15-1.07-.54-3.81c.08,0,9.63.56,24.42-2.41a146.72,146.72,0,0,0,22.92-6.66c.77-.28,1.53-.59,2.32-.92a174.11,174.11,0,0,0,47.21-28.15,183.54,183.54,0,0,0,19-17.72c1-1,2-2.08,2.95-3.12l.94-1A260,260,0,0,0,542.7,91.94c-9.65,7.62-26.63,20.69-46.32,34.08-26.79-15-77-25.19-134.61-25.19S253.94,111,227.16,126c-19.69-13.39-36.67-26.46-46.33-34.08a260,260,0,0,0,31.62,43.28c.3.35.61.68.94,1,1,1,2,2.08,2.94,3.12a185.6,185.6,0,0,0,19,17.72,174.14,174.14,0,0,0,47.22,28.15c.79.33,1.55.64,2.31.92a147,147,0,0,0,22.92,6.66c14.79,3,24.35,2.41,24.42,2.41l-.53,3.81-.15,1.07-.38,2.67v.05h0a72.49,72.49,0,0,1-16,25.41c-11.56,11.87-26.83,19.16-43.68,19.16s-31.92-7.09-43.41-18.73a75.53,75.53,0,0,1-20.61-42.51,82.51,82.51,0,0,1-.81-11.54,80.35,80.35,0,0,1,1.65-16.34,76.59,76.59,0,0,1,3.69-12.45c-.38-.38-.76-.79-1.15-1.19-.66-.72-1.34-1.4-2-2.14-.49-.51-1-1-1.43-1.55a130,130,0,0,0-24.21,45.21H150.64a49,49,0,0,0-49,49v400.6c0,143.52,115.06,262.15,258.59,263,144.14.81,261.65-116.19,261.65-260.12V235.19A49,49,0,0,0,572.89,186.17ZM318,255.19c.16-.13.31-.28.46-.41q2.6-2.13,5-4.5l.46-.45q2.55-2.49,5-5.16a.29.29,0,0,1,.07-.1c1.6-1.81,3.15-3.69,4.68-5.65.15-.2.33-.4.48-.63,1.45-1.86,2.82-3.81,4.19-5.82.21-.31.41-.61.64-.92,1.32-2,2.59-4,3.84-6.12.2-.36.43-.71.63-1.09,1.25-2.11,2.44-4.3,3.61-6.53.18-.33.36-.69.53-1.05,1.2-2.31,2.34-4.67,3.46-7.09.1-.25.23-.5.33-.78,1.17-2.54,2.29-5.16,3.38-7.86q2.89-7.12,5.41-14.86.81-2.4,1.58-4.88c.51,1.65,1,3.28,1.57,4.88q2.52,7.74,5.42,14.86c1.09,2.7,2.21,5.32,3.38,7.86.1.28.22.53.33.78q1.66,3.63,3.45,7.09c.18.36.36.72.54,1.05,1.16,2.23,2.36,4.42,3.6,6.53.21.38.44.73.64,1.09,1.24,2.08,2.52,4.14,3.84,6.12.23.31.43.61.63.92,1.37,2,2.75,4,4.2,5.82.15.23.33.43.48.63,1.52,2,3.07,3.84,4.67,5.65a.29.29,0,0,1,.08.1q2.4,2.67,5,5.16l.45.45q2.44,2.37,5,4.5c.16.13.31.28.46.41a5.19,5.19,0,0,1,.59,7.39l-39.88,45.8a5.88,5.88,0,0,1-8.89,0l-39.87-45.8A5.19,5.19,0,0,1,318,255.19Zm82.82,555.15H322.68a15.38,15.38,0,0,1,0-30.75h78.17a15.38,15.38,0,1,1,0,30.75ZM529,706.46a19.23,19.23,0,0,1-19.21,19.21H213.72a19.24,19.24,0,0,1-19.22-19.21V336.35a19.23,19.23,0,0,1,19.22-19.23h296.1A19.23,19.23,0,0,1,529,336.35Z"/><path class="cls-1" d="M392,258.48l-.07-.06-.39-.4c-1.81-1.75-3.63-3.65-5.44-5.66l-1-1.16-.05-.1c-1.38-1.6-2.76-3.28-4.18-5.11l-.07-.08,0,0,0,0c-.12-.16-.32-.41-.55-.73-1.65-2.13-3.17-4.31-4.44-6.17l0-.05,0-.06c-.09-.13-.18-.27-.28-.4l-.19-.25-.17-.27c-1.28-1.91-2.59-4-4.14-6.6l-.06-.1-.06-.09-.12-.21c-.14-.24-.33-.55-.53-.92-1.21-2-2.44-4.28-3.77-6.82l-.62-1.21c-1.19-2.3-2.38-4.75-3.64-7.47l-.13-.28-.08-.2v0l0-.09,0,.09v0l-.08.2-.13.28c-1.26,2.72-2.45,5.17-3.64,7.47-.2.41-.41.82-.62,1.21-1.32,2.54-2.56,4.77-3.76,6.82-.21.37-.39.68-.54.92l-.12.21-.05.09-.06.1c-1.55,2.59-2.87,4.69-4.14,6.6l-.18.27-.19.25c-.1.13-.18.27-.27.4l0,.05,0,.06c-1.28,1.86-2.8,4-4.44,6.17l-.56.73v0l0,0-.06.08c-1.42,1.83-2.8,3.51-4.18,5.11l-.06.1-1,1.16c-1.8,2-3.63,3.91-5.43,5.66l-.4.4-.06.06-.07.06-1.28,1.22L361.77,296l31.52-36.21L392,258.54Z"/></svg>